<svg width="21" height="16" viewBox="0 0 21 16" fill="none" xmlns="http://www.w3.org/2000/svg">
<g clip-path="url(#clip0)">
<path d="M11.6408 4.6861C11.6408 4.70731 11.6408 4.72851 11.6408 4.74972L8.63028 9.13938C8.14437 9.11817 7.64789 9.203 7.19366 9.39385C6.99296 9.47868 6.79225 9.58471 6.61268 9.70134L0 6.96575C0 6.96575 0.316901 9.76496 0.485915 11.3766L5.16549 13.317C5.39789 14.3667 6.1162 15.2891 7.1831 15.7345C8.91549 16.4661 10.9225 15.6284 11.6408 13.8895C11.831 13.4336 11.9155 12.9565 11.9049 12.4793L16.2148 9.39385C16.2465 9.39385 16.2887 9.39385 16.3204 9.39385C18.8979 9.39385 21 7.28385 21 4.6967C21 2.10956 18.9085 -0.000448494 16.3204 -0.000448494C13.743 -0.0110515 11.6408 2.09896 11.6408 4.6861ZM10.9225 13.5821C10.3627 14.9286 8.82042 15.5648 7.47887 15.0029C6.85563 14.7484 6.39085 14.2713 6.12676 13.7093L7.64789 14.3455C8.64085 14.759 9.77113 14.2925 10.1831 13.2958C10.5951 12.2991 10.1303 11.1646 9.13732 10.751L7.56338 10.0937C8.16549 9.86039 8.86268 9.84978 9.50704 10.1255C10.162 10.4011 10.6585 10.9101 10.9331 11.5569C11.2077 12.2037 11.1866 12.9353 10.9225 13.5821ZM16.3204 7.8246C14.5986 7.8246 13.2042 6.4144 13.2042 4.6967C13.2042 2.96841 14.5986 1.5688 16.3204 1.5688C18.0423 1.5688 19.4366 2.97901 19.4366 4.6967C19.4261 6.4144 18.0317 7.8246 16.3204 7.8246ZM13.9859 4.6861C13.9859 3.38192 15.0317 2.33222 16.3204 2.33222C17.6092 2.33222 18.6549 3.38192 18.6549 4.6861C18.6549 5.99027 17.6092 7.03998 16.3204 7.03998C15.0317 7.03998 13.9859 5.97967 13.9859 4.6861Z" fill="white"/>
</g>
<defs>
<clipPath id="clip0">
<rect width="21" height="16" fill="white"/>
</clipPath>
</defs>
</svg>
