<svg width="20" height="21" viewBox="0 0 20 21" fill="none" xmlns="http://www.w3.org/2000/svg">
<path d="M7.5 8.23584C7.5 7.57178 6.91406 6.98584 6.25 6.98584H5.625C4.21875 6.98584 3.125 8.11865 3.125 9.48584V11.3608C3.125 12.7671 4.21875 13.8608 5.625 13.8608H6.25C6.91406 13.8608 7.5 13.314 7.5 12.6108V8.23584ZM14.375 13.8608C15.7422 13.8608 16.875 12.7671 16.875 11.3608V9.48584C16.875 8.11865 15.7422 6.98584 14.375 6.98584H13.75C13.0469 6.98584 12.5 7.57178 12.5 8.23584V12.6108C12.5 13.314 13.0469 13.8608 13.75 13.8608H14.375ZM10 0.11084C4.41406 0.11084 0.15625 4.75928 0 10.1108V10.7358C0 11.0874 0.273438 11.3608 0.625 11.3608H1.25C1.5625 11.3608 1.875 11.0874 1.875 10.7358V10.1108C1.875 5.65771 5.50781 1.98584 10 1.98584C14.4531 1.98584 18.125 5.65771 18.125 10.1108H18.0859C18.0859 10.228 18.125 16.5952 18.125 16.5952C18.125 17.5327 17.3828 18.2358 16.4453 18.2358H12.5C12.5 17.2202 11.6406 16.3608 10.625 16.3608H9.375C8.32031 16.3608 7.5 17.2202 7.5 18.2358C7.5 19.2905 8.32031 20.1108 9.375 20.1108H16.4453C18.3984 20.1108 20 18.5483 20 16.5952V10.1108C19.8047 4.75928 15.5469 0.11084 10 0.11084Z" fill="#3789E3"/>
</svg>
