<svg width="12" height="13" viewBox="0 0 12 13" fill="none" xmlns="http://www.w3.org/2000/svg">
<path d="M11.8125 6.76099C11.8125 3.57349 9.1875 0.948486 6 0.948486C2.78906 0.948486 0.1875 3.57349 0.1875 6.76099C0.1875 9.97192 2.78906 12.5735 6 12.5735C9.1875 12.5735 11.8125 9.97192 11.8125 6.76099ZM5.32031 9.85474C5.17969 9.99536 4.92188 9.99536 4.78125 9.85474L2.34375 7.41724C2.20312 7.27661 2.20312 7.0188 2.34375 6.87817L2.88281 6.36255C3.02344 6.19849 3.25781 6.19849 3.39844 6.36255L5.0625 8.00317L8.57812 4.48755C8.71875 4.32349 8.95312 4.32349 9.09375 4.48755L9.63281 5.00317C9.77344 5.1438 9.77344 5.40161 9.63281 5.54224L5.32031 9.85474Z" fill="#80DA60"/>
<a href="https://shark-keys.com/">
<rect fill="black" fill-opacity="0" y="0.0999999" width="12" height="13.8"/>
</a>
</svg>
