<svg width="23" height="21" viewBox="0 0 23 21" fill="none" xmlns="http://www.w3.org/2000/svg">
<path d="M20.625 11.9077L22.4609 3.78271C22.5781 3.19678 22.1484 2.61084 21.5234 2.61084H6.21094L5.85938 0.89209C5.74219 0.462402 5.35156 0.11084 4.92188 0.11084H0.9375C0.390625 0.11084 0 0.540527 0 1.04834V1.67334C0 2.22021 0.390625 2.61084 0.9375 2.61084H3.63281L6.40625 16.0483C5.74219 16.439 5.3125 17.1421 5.3125 17.9233C5.3125 19.1343 6.28906 20.1108 7.5 20.1108C8.67188 20.1108 9.6875 19.1343 9.6875 17.9233C9.6875 17.3374 9.41406 16.7905 9.02344 16.3608H17.1875C16.7969 16.7905 16.5625 17.3374 16.5625 17.9233C16.5625 19.1343 17.5391 20.1108 18.75 20.1108C19.9219 20.1108 20.9375 19.1343 20.9375 17.9233C20.9375 17.064 20.4297 16.3218 19.6875 15.9702L19.8828 15.0327C20.0391 14.4468 19.5703 13.8608 18.9844 13.8608H8.51562L8.24219 12.6108H19.6875C20.1172 12.6108 20.5078 12.3374 20.625 11.9077Z" fill="#80DA60"/>
</svg>
