<svg width="19" height="19" viewBox="0 0 19 19" fill="none" xmlns="http://www.w3.org/2000/svg">
<path d="M9.52712 0C6.1324 0 4.27078 1.03736 2.84718 2.07471C1.31409 3.22126 0.164261 5.13218 0.109507 5.24138L0.985564 5.78736C0.438028 6.82471 0 8.24425 0 9.88218C0 11.2471 0.328521 12.5575 0.821303 13.704C0.821303 13.7586 0.821303 13.7586 0.876057 13.8132C2.3544 16.9253 5.63961 19 9.47236 19C14.7835 19 18.9995 14.8506 18.9995 9.5C19.0542 4.25862 14.7835 0 9.52712 0ZM2.3544 11.9023C2.3544 12.0661 2.3544 12.1753 2.3544 12.3391L2.2449 12.3937C1.80687 10.4828 2.08063 8.57184 3.12095 7.1523C3.8875 6.11494 5.31109 4.85919 7.99402 4.85919C10.9507 4.85919 12.4838 6.87931 12.9218 8.73563L12.8671 8.79023C11.8815 7.0977 10.1842 6.06034 8.15828 6.06034C4.76356 5.95115 2.3544 8.40804 2.3544 11.9023ZM11.553 12.5029C11.0055 13.3218 10.0199 13.6494 9.1986 13.6494C7.6655 13.6494 6.51567 12.6121 6.51567 11.3017C6.51567 9.88218 7.50124 8.95402 8.97958 8.95402C9.80088 8.95402 10.5127 9.28161 10.9507 9.82759C11.1697 10.1006 11.6078 11.0833 10.896 12.0661L11.553 12.5029ZM9.52712 17.1983C6.84419 17.1983 4.16127 15.3965 4.16127 11.9023C4.16127 10.4828 4.7088 9.11781 5.96814 8.35345C5.20159 9.06322 4.76356 10.1006 4.76356 11.3017C4.76356 13.6494 6.73469 15.4511 9.1986 15.4511C12.5386 15.4511 14.8382 13.1034 14.8382 9.71839C14.8382 6.44253 12.2648 3.00287 7.99402 3.00287C5.80388 3.00287 3.94226 3.71264 2.57342 5.02299L2.51866 4.96839C2.90194 4.47701 3.39472 3.93103 3.94226 3.54885C5.14683 2.62069 6.67993 1.80172 9.52712 1.80172C13.7979 1.80172 17.2474 5.24138 17.2474 9.5C17.2474 13.8678 13.9074 17.1983 9.52712 17.1983Z" fill="white"/>
</svg>
