<svg width="26" height="19" viewBox="0 0 26 19" fill="none" xmlns="http://www.w3.org/2000/svg">
<path d="M17.6016 9.49976C16.9375 9.49976 16.3125 9.14819 16 8.60132L13.5 4.42163L10.9609 8.60132C10.6484 9.18726 10.0234 9.53882 9.35938 9.53882C9.16406 9.53882 9.00781 9.49976 8.85156 9.46069L3.5 7.89819V14.8513C3.5 15.4373 3.89062 15.9451 4.4375 16.0623L12.875 18.2107C13.2656 18.2888 13.6953 18.2888 14.0859 18.2107L22.5234 16.0623C23.1094 15.9451 23.5 15.4373 23.5 14.8513V7.89819L18.1484 9.46069C17.9531 9.49976 17.7969 9.49976 17.6016 9.49976ZM25.9219 5.12476L23.8906 1.10132C23.7734 0.866943 23.5391 0.749756 23.2656 0.788818L13.5 1.99976L17.0547 7.97632C17.2109 8.21069 17.5234 8.32788 17.7969 8.24976L25.5312 6.02319C25.9219 5.90601 26.0781 5.47632 25.9219 5.12476ZM3.07031 1.10132L1.03906 5.12476C0.882812 5.47632 1.07812 5.90601 1.42969 6.02319L9.16406 8.24976C9.4375 8.32788 9.75 8.21069 9.90625 7.93726L13.5 1.99976L3.69531 0.788818C3.42188 0.749756 3.1875 0.866943 3.07031 1.10132Z" fill="#FC9E4F"/>
</svg>
