<svg width="25" height="13" viewBox="0 0 25 13" fill="none" xmlns="http://www.w3.org/2000/svg">
<path d="M18.75 0.249756H6.25C2.77344 0.249756 0 3.06226 0 6.49976C0 9.97632 2.77344 12.7498 6.25 12.7498C7.96875 12.7498 9.57031 12.0466 10.7031 10.8748H14.2578C15.3906 12.0466 16.9922 12.7888 18.75 12.7888C22.1875 12.7888 25 9.97632 25 6.53882C25 3.06226 22.1875 0.288818 18.75 0.249756ZM9.6875 6.96851C9.6875 7.24194 9.45312 7.43726 9.21875 7.43726H7.1875V9.46851C7.1875 9.74194 6.95312 9.93726 6.71875 9.93726H5.78125C5.50781 9.93726 5.3125 9.74194 5.3125 9.46851V7.43726H3.28125C3.00781 7.43726 2.8125 7.24194 2.8125 6.96851V6.03101C2.8125 5.79663 3.00781 5.56226 3.28125 5.56226H5.3125V3.53101C5.3125 3.29663 5.50781 3.06226 5.78125 3.06226H6.71875C6.95312 3.06226 7.1875 3.29663 7.1875 3.53101V5.56226H9.21875C9.45312 5.56226 9.6875 5.79663 9.6875 6.03101V6.96851ZM18.125 9.93726C17.2266 9.93726 16.5625 9.27319 16.5625 8.37476C16.5625 7.51538 17.2266 6.81226 18.125 6.81226C18.9844 6.81226 19.6875 7.51538 19.6875 8.37476C19.6875 9.27319 18.9844 9.93726 18.125 9.93726ZM20.625 6.18726C19.7266 6.18726 19.0625 5.52319 19.0625 4.62476C19.0625 3.76538 19.7266 3.06226 20.625 3.06226C21.4844 3.06226 22.1875 3.76538 22.1875 4.62476C22.1875 5.52319 21.4844 6.18726 20.625 6.18726Z" fill="#80DA60"/>
</svg>
