<svg width="20" height="21" viewBox="0 0 20 21" fill="none" xmlns="http://www.w3.org/2000/svg">
<path d="M20 7.41382C20 3.58569 16.9141 0.499756 13.0859 0.499756C9.29688 0.538818 6.25 3.58569 6.25 7.37476C6.25 8.15601 6.36719 8.85913 6.5625 9.56226L0.273438 15.8513C0.078125 16.0466 0 16.281 0 16.5154V19.5623C0 20.1091 0.390625 20.4998 0.9375 20.4998H5.3125C5.82031 20.4998 6.25 20.1091 6.25 19.5623V17.9998H7.8125C8.32031 17.9998 8.75 17.6091 8.75 17.0623V15.4998H10.1953C10.4297 15.4998 10.7422 15.3826 10.8984 15.1873L11.8359 14.1326C12.2266 14.2107 12.6562 14.2498 13.125 14.2498C16.9141 14.2498 20 11.2029 20 7.41382ZM13.125 5.49976C13.125 4.48413 13.9453 3.62476 15 3.62476C16.0156 3.62476 16.875 4.48413 16.875 5.49976C16.875 6.55444 16.0156 7.37476 15 7.37476C13.9453 7.37476 13.125 6.55444 13.125 5.49976Z" fill="#191B20"/>
</svg>
