<svg width="18" height="21" viewBox="0 0 18 21" fill="none" xmlns="http://www.w3.org/2000/svg">
<path d="M8.75 10.4998C11.4844 10.4998 13.75 8.27319 13.75 5.49976C13.75 2.76538 11.4844 0.499756 8.75 0.499756C5.97656 0.499756 3.75 2.76538 3.75 5.49976C3.75 8.27319 5.97656 10.4998 8.75 10.4998ZM12.2266 11.7498H11.5625C10.7031 12.1794 9.76562 12.3748 8.75 12.3748C7.73438 12.3748 6.75781 12.1794 5.89844 11.7498H5.23438C2.34375 11.7498 0 14.1326 0 17.0232V18.6248C0 19.6794 0.820312 20.4998 1.875 20.4998H15.625C16.6406 20.4998 17.5 19.6794 17.5 18.6248V17.0232C17.5 14.1326 15.1172 11.7498 12.2266 11.7498Z" fill="#191B20"/>
</svg>
