<svg width="20" height="21" viewBox="0 0 20 21" fill="none" xmlns="http://www.w3.org/2000/svg">
<path d="M14.4531 5.73438L12.8125 7.375C12.2266 7.96094 12.6562 8.9375 13.4766 8.9375H18.75C19.2578 8.9375 19.6875 8.54688 19.6875 8V2.76562C19.6875 1.94531 18.6719 1.51562 18.0859 2.10156L16.6797 3.50781C14.9219 1.86719 12.5781 0.8125 10 0.8125C5.23438 0.8125 1.28906 4.21094 0.46875 8.70312C0.390625 9.01562 0.625 9.25 0.9375 9.25H3.16406C3.35938 9.25 3.55469 9.13281 3.63281 8.89844C4.33594 6.04688 6.95312 3.97656 9.96094 3.9375C11.6406 3.9375 13.2422 4.60156 14.4531 5.73438ZM1.25 12.0625C0.703125 12.0625 0.3125 12.4922 0.3125 13V18.2734C0.3125 19.0938 1.28906 19.5234 1.875 18.9375L3.28125 17.5312C5.03906 19.1719 7.38281 20.1875 10 20.1875C14.7266 20.1875 18.6719 16.8281 19.4922 12.3359C19.5703 12.0234 19.3359 11.7891 19.0234 11.7891H16.7969C16.6016 11.7891 16.4062 11.9062 16.3281 12.1406C15.625 14.9922 13.0078 17.0625 10 17.1016C8.32031 17.1016 6.71875 16.4375 5.50781 15.3047L7.14844 13.6641C7.73438 13.0781 7.30469 12.0625 6.48438 12.0625H1.25Z" fill="white"/>
</svg>
