<svg width="25" height="13" viewBox="0 0 25 13" fill="none" xmlns="http://www.w3.org/2000/svg">
<g clip-path="url(#clip0)">
<path d="M0.829849 0C1.70339 0 3.03451 0 3.78326 0C4.15764 0 4.44882 0.21547 4.57361 0.502762C4.94799 1.43646 5.77993 3.48343 6.73667 4.88398C8.02619 6.71547 8.85814 7.39779 9.3989 7.32597C9.93967 7.21823 9.77328 5.99724 9.77328 5.02762C9.77328 4.05801 9.89807 2.40608 9.3573 1.65193L8.52536 0.610497C8.31737 0.359116 8.52536 0.0359116 8.85814 0.0359116H13.6002C14.0578 0.0359116 14.4322 0.359116 14.4322 0.754144V5.96133C14.4322 5.96133 14.6402 6.89503 15.8049 5.92541C16.9696 4.9558 18.2175 3.16022 19.2575 1.32873L19.6734 0.466851C19.7982 0.21547 20.0894 0.0359116 20.4222 0.0359116H23.5004C24.0828 0.0359116 24.4987 0.538674 24.2908 1.00552L23.958 1.75967C23.958 1.75967 22.8348 3.6989 21.6701 5.06354C20.5054 6.46409 20.2558 6.78729 20.4222 7.14641C20.5886 7.50552 23.5836 9.9116 24.3323 11.0608C24.5403 11.384 24.7067 11.6713 24.8731 11.9227C25.1643 12.3895 24.7483 13 24.1244 13H20.6302C20.339 13 20.0478 12.8564 19.923 12.6409L19.5903 12.174C19.5903 12.174 17.4688 10.0193 16.1793 9.33702C14.8482 8.69061 14.8898 9.62431 14.8898 9.62431V11.5276C14.8898 12.3177 14.141 12.9641 13.2259 12.9641H12.3939C12.3939 12.9641 7.8182 12.9641 4.15764 8.25967C1.28742 4.59668 0.33068 2.22652 -0.0020983 0.861878C-0.085293 0.430939 0.289083 0 0.829849 0Z" fill="white"/>
</g>
<defs>
<clipPath id="clip0">
<rect width="25" height="13" fill="white"/>
</clipPath>
</defs>
</svg>
