<svg width="21" height="14" viewBox="0 0 21 14" fill="none" xmlns="http://www.w3.org/2000/svg">
<g clip-path="url(#clip0)">
<path d="M20.5615 2.18611C20.3202 1.32532 19.6084 0.647986 18.7046 0.417691C17.0671 0 10.4997 0 10.4997 0C10.4997 0 3.93295 0 2.29541 0.418256C1.39159 0.647986 0.680384 1.32532 0.438575 2.18611C0 3.74568 0 7.00028 0 7.00028C0 7.00028 0 10.2543 0.438575 11.8139C0.679791 12.6747 1.39159 13.352 2.29541 13.5823C3.93354 14 10.5003 14 10.5003 14C10.5003 14 17.0671 14 18.7052 13.5823C19.609 13.3526 20.3202 12.6747 20.5621 11.8139C21.0012 10.2543 21.0012 7.00028 21.0012 7.00028C21.0012 7.00028 21 3.74568 20.5615 2.18611Z" fill="white"/>
<path d="M8.39941 10.0006L13.8555 7.00053L8.39941 4.00049V10.0006Z" fill="#ED1F24"/>
</g>
<defs>
<clipPath id="clip0">
<rect width="21" height="14" fill="white"/>
</clipPath>
</defs>
</svg>
